<svg xmlns="http://www.w3.org/2000/svg" width="96" height="96" viewBox="0 0 96 96">
  <path d="M0 12A12 12 0 0 1 12 0h72a12 12 0 0 1 12 12v72a12 12 0 0 1-12 12H12A12 12 0 0 1 0 84Z" fill="#ff671f"/>
  <path d="M0 32h96v32H0Z" fill="#ffffff"/>
  <path d="M0 64h96v20a12 12 0 0 1-12 12H12A12 12 0 0 1 0 84Z" fill="#046a38"/>
  <path d="M0 12A12 12 0 0 1 12 0h72a12 12 0 0 1 12 12v72a12 12 0 0 1-12 12H12A12 12 0 0 1 0 84Z" fill="none" stroke="#171717" stroke-width="3"/>
  <circle cx="48" cy="48" r="8.5" fill="none" stroke="#06038d" stroke-width="1.8"/>
  <circle cx="48" cy="48" r="1.6" fill="#06038d"/>
  <g stroke="#06038d" stroke-width="1" stroke-linecap="round">
    <line x1="48" y1="39.5" x2="48" y2="56.5"/>
    <line x1="39.5" y1="48" x2="56.5" y2="48"/>
    <line x1="42" y1="42" x2="54" y2="54"/>
    <line x1="54" y1="42" x2="42" y2="54"/>
    <line x1="45.8" y1="39.8" x2="50.2" y2="56.2"/>
    <line x1="50.2" y1="39.8" x2="45.8" y2="56.2"/>
    <line x1="39.8" y1="45.8" x2="56.2" y2="50.2"/>
    <line x1="39.8" y1="50.2" x2="56.2" y2="45.8"/>
  </g>
</svg>
